<mxfile host="app.diagrams.net" modified="2023-03-20T09:41:21.090Z" agent="5.0 (Windows NT 10.0; Win64; x64) AppleWebKit/537.36 (KHTML, like Gecko) Chrome/111.0.0.0 Safari/537.36" etag="sHA3-2r5kLwjqHHktLA7" version="21.0.6" type="github" pages="3">
  <diagram name="WholeCircuit" id="7e0a89b8-554c-2b80-1dc8-d5c74ca68de4">
    <mxGraphModel dx="1050" dy="541" grid="1" gridSize="1" guides="1" tooltips="1" connect="1" arrows="1" fold="1" page="1" pageScale="1" pageWidth="1169" pageHeight="827" background="none" math="0" shadow="0">
      <root>
        <mxCell id="0" />
        <mxCell id="1" parent="0" />
        <mxCell id="Ghs-h1TlIMZVXmRPlHBD-1" value="" style="pointerEvents=1;verticalLabelPosition=bottom;shadow=0;dashed=0;align=center;html=1;verticalAlign=top;shape=mxgraph.electrical.miscellaneous.fuse_2;" parent="1" vertex="1">
          <mxGeometry x="120" y="240" width="100" height="20" as="geometry" />
        </mxCell>
        <mxCell id="Ghs-h1TlIMZVXmRPlHBD-4" value="LV Battery&lt;br&gt;12VDC" style="rounded=0;whiteSpace=wrap;html=1;" parent="1" vertex="1">
          <mxGeometry x="40" y="640" width="120" height="60" as="geometry" />
        </mxCell>
        <mxCell id="IGZOKPZk4_O1BszyYSxt-1" value="Shutdown Circuit" style="rounded=0;whiteSpace=wrap;html=1;" parent="1" vertex="1">
          <mxGeometry x="250" y="628" width="120" height="60" as="geometry" />
        </mxCell>
        <mxCell id="IGZOKPZk4_O1BszyYSxt-2" value="Inverter" style="rounded=0;whiteSpace=wrap;html=1;" parent="1" vertex="1">
          <mxGeometry x="418" y="320" width="120" height="60" as="geometry" />
        </mxCell>
        <mxCell id="IGZOKPZk4_O1BszyYSxt-4" value="Motor" style="ellipse;whiteSpace=wrap;html=1;aspect=fixed;" parent="1" vertex="1">
          <mxGeometry x="540" y="360" width="80" height="80" as="geometry" />
        </mxCell>
        <mxCell id="IGZOKPZk4_O1BszyYSxt-5" value="TSAL Circuit" style="rounded=0;whiteSpace=wrap;html=1;" parent="1" vertex="1">
          <mxGeometry x="399" y="524" width="120" height="60" as="geometry" />
        </mxCell>
        <mxCell id="IGZOKPZk4_O1BszyYSxt-6" value="" style="html=1;shape=mxgraph.electrical.electro-mechanical.singleSwitch;aspect=fixed;elSwitchState=off;" parent="1" vertex="1">
          <mxGeometry x="85" y="780" width="75" height="20" as="geometry" />
        </mxCell>
        <mxCell id="s1pF_0AGRcLokAp3F1AN-1" value="" style="group" parent="1" vertex="1" connectable="0">
          <mxGeometry x="50" y="250" width="60" height="350" as="geometry" />
        </mxCell>
        <mxCell id="r1BfKw9GPEfe_xsOGwNw-2" value="" style="verticalLabelPosition=bottom;shadow=0;dashed=0;align=center;fillColor=strokeColor;html=1;verticalAlign=top;strokeWidth=1;shape=mxgraph.electrical.miscellaneous.monocell_battery;rotation=-90;" parent="s1pF_0AGRcLokAp3F1AN-1" vertex="1">
          <mxGeometry x="-20" y="140" width="100" height="60" as="geometry" />
        </mxCell>
        <mxCell id="r1BfKw9GPEfe_xsOGwNw-3" value="" style="verticalLabelPosition=bottom;shadow=0;dashed=0;align=center;fillColor=strokeColor;html=1;verticalAlign=top;strokeWidth=1;shape=mxgraph.electrical.miscellaneous.monocell_battery;rotation=-90;" parent="s1pF_0AGRcLokAp3F1AN-1" vertex="1">
          <mxGeometry x="-20" y="80" width="100" height="60" as="geometry" />
        </mxCell>
        <mxCell id="r1BfKw9GPEfe_xsOGwNw-4" value="" style="verticalLabelPosition=bottom;shadow=0;dashed=0;align=center;fillColor=strokeColor;html=1;verticalAlign=top;strokeWidth=1;shape=mxgraph.electrical.miscellaneous.monocell_battery;rotation=-90;" parent="s1pF_0AGRcLokAp3F1AN-1" vertex="1">
          <mxGeometry x="-20" y="20" width="100" height="60" as="geometry" />
        </mxCell>
        <mxCell id="r1BfKw9GPEfe_xsOGwNw-5" value="" style="shape=waypoint;sketch=0;fillStyle=solid;size=6;pointerEvents=1;points=[];fillColor=none;resizable=0;rotatable=0;perimeter=centerPerimeter;snapToPoint=1;" parent="s1pF_0AGRcLokAp3F1AN-1" vertex="1">
          <mxGeometry x="20" y="210" width="20" height="20" as="geometry" />
        </mxCell>
        <mxCell id="r1BfKw9GPEfe_xsOGwNw-9" value="" style="shape=waypoint;sketch=0;fillStyle=solid;size=6;pointerEvents=1;points=[];fillColor=none;resizable=0;rotatable=0;perimeter=centerPerimeter;snapToPoint=1;" parent="s1pF_0AGRcLokAp3F1AN-1" vertex="1">
          <mxGeometry x="20" y="220" width="20" height="20" as="geometry" />
        </mxCell>
        <mxCell id="r1BfKw9GPEfe_xsOGwNw-10" value="" style="shape=waypoint;sketch=0;fillStyle=solid;size=6;pointerEvents=1;points=[];fillColor=none;resizable=0;rotatable=0;perimeter=centerPerimeter;snapToPoint=1;" parent="s1pF_0AGRcLokAp3F1AN-1" vertex="1">
          <mxGeometry x="20" y="230" width="20" height="20" as="geometry" />
        </mxCell>
        <mxCell id="r1BfKw9GPEfe_xsOGwNw-11" value="" style="shape=waypoint;sketch=0;fillStyle=solid;size=6;pointerEvents=1;points=[];fillColor=none;resizable=0;rotatable=0;perimeter=centerPerimeter;snapToPoint=1;" parent="s1pF_0AGRcLokAp3F1AN-1" vertex="1">
          <mxGeometry x="20" y="240" width="20" height="20" as="geometry" />
        </mxCell>
        <mxCell id="r1BfKw9GPEfe_xsOGwNw-12" value="" style="verticalLabelPosition=bottom;shadow=0;dashed=0;align=center;fillColor=strokeColor;html=1;verticalAlign=top;strokeWidth=1;shape=mxgraph.electrical.miscellaneous.monocell_battery;rotation=-90;" parent="s1pF_0AGRcLokAp3F1AN-1" vertex="1">
          <mxGeometry x="-20" y="270" width="100" height="60" as="geometry" />
        </mxCell>
        <mxCell id="s1pF_0AGRcLokAp3F1AN-2" value="" style="pointerEvents=1;verticalLabelPosition=bottom;shadow=0;dashed=0;align=center;html=1;verticalAlign=top;shape=mxgraph.electrical.electro-mechanical.relay_coil;direction=south;" parent="1" vertex="1">
          <mxGeometry x="275" y="260" width="35" height="70" as="geometry" />
        </mxCell>
        <mxCell id="s1pF_0AGRcLokAp3F1AN-7" value="" style="html=1;shape=mxgraph.electrical.electro-mechanical.singleSwitch;aspect=fixed;elSwitchState=off;direction=east;" parent="1" vertex="1">
          <mxGeometry x="255" y="234" width="75" height="20" as="geometry" />
        </mxCell>
        <mxCell id="KI6Z-gmB9bM-lv3hHKG6-2" value="" style="pointerEvents=1;verticalLabelPosition=bottom;shadow=0;dashed=0;align=center;html=1;verticalAlign=top;shape=mxgraph.electrical.miscellaneous.fuse_2;direction=south;" parent="1" vertex="1">
          <mxGeometry x="229" y="295" width="20" height="100" as="geometry" />
        </mxCell>
        <mxCell id="KI6Z-gmB9bM-lv3hHKG6-3" value="IMD" style="rounded=0;whiteSpace=wrap;html=1;" parent="1" vertex="1">
          <mxGeometry x="155" y="421" width="70" height="50" as="geometry" />
        </mxCell>
      </root>
    </mxGraphModel>
  </diagram>
  <diagram id="LQtQ4A15hiu87HvFoCMb" name="ShutdownCircuit">
    <mxGraphModel dx="1235" dy="636" grid="1" gridSize="10" guides="1" tooltips="1" connect="1" arrows="1" fold="1" page="1" pageScale="1" pageWidth="1169" pageHeight="827" math="0" shadow="0">
      <root>
        <mxCell id="0" />
        <mxCell id="1" parent="0" />
        <mxCell id="AH3HU4S3ruZKtebcFNh3-1" value="" style="verticalLabelPosition=bottom;shadow=0;dashed=0;align=center;fillColor=strokeColor;html=1;verticalAlign=top;strokeWidth=1;shape=mxgraph.electrical.miscellaneous.monocell_battery;direction=north;" vertex="1" parent="1">
          <mxGeometry x="90" y="210" width="60" height="100" as="geometry" />
        </mxCell>
      </root>
    </mxGraphModel>
  </diagram>
  <diagram id="VsBRsSv6SwXmK0gv4fTQ" name="AMS">
    <mxGraphModel dx="636" dy="328" grid="1" gridSize="5" guides="1" tooltips="1" connect="1" arrows="1" fold="1" page="1" pageScale="1" pageWidth="1169" pageHeight="827" math="0" shadow="0">
      <root>
        <mxCell id="0" />
        <mxCell id="1" parent="0" />
        <mxCell id="6fAgSipWNxko-uqJC6Hb-1" value="" style="group" vertex="1" connectable="0" parent="1">
          <mxGeometry x="50" y="120" width="60" height="350" as="geometry" />
        </mxCell>
        <mxCell id="6fAgSipWNxko-uqJC6Hb-2" value="" style="verticalLabelPosition=bottom;shadow=0;dashed=0;align=center;fillColor=strokeColor;html=1;verticalAlign=top;strokeWidth=1;shape=mxgraph.electrical.miscellaneous.monocell_battery;rotation=-90;" vertex="1" parent="6fAgSipWNxko-uqJC6Hb-1">
          <mxGeometry x="-20" y="140" width="100" height="60" as="geometry" />
        </mxCell>
        <mxCell id="6fAgSipWNxko-uqJC6Hb-3" value="" style="verticalLabelPosition=bottom;shadow=0;dashed=0;align=center;fillColor=strokeColor;html=1;verticalAlign=top;strokeWidth=1;shape=mxgraph.electrical.miscellaneous.monocell_battery;rotation=-90;" vertex="1" parent="6fAgSipWNxko-uqJC6Hb-1">
          <mxGeometry x="-20" y="80" width="100" height="60" as="geometry" />
        </mxCell>
        <mxCell id="6fAgSipWNxko-uqJC6Hb-4" value="" style="verticalLabelPosition=bottom;shadow=0;dashed=0;align=center;fillColor=strokeColor;html=1;verticalAlign=top;strokeWidth=1;shape=mxgraph.electrical.miscellaneous.monocell_battery;rotation=-90;" vertex="1" parent="6fAgSipWNxko-uqJC6Hb-1">
          <mxGeometry x="-20" y="20" width="100" height="60" as="geometry" />
        </mxCell>
        <mxCell id="6fAgSipWNxko-uqJC6Hb-5" value="" style="shape=waypoint;sketch=0;fillStyle=solid;size=6;pointerEvents=1;points=[];fillColor=none;resizable=0;rotatable=0;perimeter=centerPerimeter;snapToPoint=1;" vertex="1" parent="6fAgSipWNxko-uqJC6Hb-1">
          <mxGeometry x="20" y="210" width="20" height="20" as="geometry" />
        </mxCell>
        <mxCell id="6fAgSipWNxko-uqJC6Hb-6" value="" style="shape=waypoint;sketch=0;fillStyle=solid;size=6;pointerEvents=1;points=[];fillColor=none;resizable=0;rotatable=0;perimeter=centerPerimeter;snapToPoint=1;" vertex="1" parent="6fAgSipWNxko-uqJC6Hb-1">
          <mxGeometry x="20" y="220" width="20" height="20" as="geometry" />
        </mxCell>
        <mxCell id="6fAgSipWNxko-uqJC6Hb-7" value="" style="shape=waypoint;sketch=0;fillStyle=solid;size=6;pointerEvents=1;points=[];fillColor=none;resizable=0;rotatable=0;perimeter=centerPerimeter;snapToPoint=1;" vertex="1" parent="6fAgSipWNxko-uqJC6Hb-1">
          <mxGeometry x="20" y="230" width="20" height="20" as="geometry" />
        </mxCell>
        <mxCell id="6fAgSipWNxko-uqJC6Hb-8" value="" style="shape=waypoint;sketch=0;fillStyle=solid;size=6;pointerEvents=1;points=[];fillColor=none;resizable=0;rotatable=0;perimeter=centerPerimeter;snapToPoint=1;" vertex="1" parent="6fAgSipWNxko-uqJC6Hb-1">
          <mxGeometry x="20" y="240" width="20" height="20" as="geometry" />
        </mxCell>
        <mxCell id="6fAgSipWNxko-uqJC6Hb-9" value="" style="verticalLabelPosition=bottom;shadow=0;dashed=0;align=center;fillColor=strokeColor;html=1;verticalAlign=top;strokeWidth=1;shape=mxgraph.electrical.miscellaneous.monocell_battery;rotation=-90;" vertex="1" parent="6fAgSipWNxko-uqJC6Hb-1">
          <mxGeometry x="-20" y="270" width="100" height="60" as="geometry" />
        </mxCell>
        <mxCell id="6fAgSipWNxko-uqJC6Hb-27" style="edgeStyle=orthogonalEdgeStyle;rounded=0;orthogonalLoop=1;jettySize=auto;html=1;exitX=0;exitY=0.1;exitDx=0;exitDy=0;exitPerimeter=0;endArrow=oval;endFill=1;" edge="1" parent="1" source="6fAgSipWNxko-uqJC6Hb-16">
          <mxGeometry relative="1" as="geometry">
            <mxPoint x="80" y="140" as="targetPoint" />
            <Array as="points">
              <mxPoint x="245" y="156" />
              <mxPoint x="245" y="140" />
            </Array>
          </mxGeometry>
        </mxCell>
        <mxCell id="6fAgSipWNxko-uqJC6Hb-28" style="edgeStyle=orthogonalEdgeStyle;rounded=0;orthogonalLoop=1;jettySize=auto;html=1;exitX=0;exitY=0.2;exitDx=0;exitDy=0;exitPerimeter=0;endArrow=oval;endFill=1;" edge="1" parent="1" source="6fAgSipWNxko-uqJC6Hb-16">
          <mxGeometry relative="1" as="geometry">
            <mxPoint x="80" y="195" as="targetPoint" />
          </mxGeometry>
        </mxCell>
        <mxCell id="6fAgSipWNxko-uqJC6Hb-29" style="edgeStyle=orthogonalEdgeStyle;rounded=0;orthogonalLoop=1;jettySize=auto;html=1;exitX=0;exitY=0.35;exitDx=0;exitDy=0;exitPerimeter=0;entryX=0.281;entryY=0.503;entryDx=0;entryDy=0;entryPerimeter=0;endArrow=oval;endFill=1;" edge="1" parent="1" source="6fAgSipWNxko-uqJC6Hb-16" target="6fAgSipWNxko-uqJC6Hb-3">
          <mxGeometry relative="1" as="geometry">
            <Array as="points">
              <mxPoint x="280" y="171" />
              <mxPoint x="280" y="252" />
            </Array>
          </mxGeometry>
        </mxCell>
        <mxCell id="6fAgSipWNxko-uqJC6Hb-30" style="edgeStyle=orthogonalEdgeStyle;rounded=0;orthogonalLoop=1;jettySize=auto;html=1;exitX=0;exitY=0.45;exitDx=0;exitDy=0;exitPerimeter=0;entryX=0.252;entryY=0.503;entryDx=0;entryDy=0;entryPerimeter=0;endArrow=oval;endFill=1;" edge="1" parent="1" source="6fAgSipWNxko-uqJC6Hb-16" target="6fAgSipWNxko-uqJC6Hb-2">
          <mxGeometry relative="1" as="geometry">
            <Array as="points">
              <mxPoint x="300" y="177" />
              <mxPoint x="300" y="315" />
            </Array>
          </mxGeometry>
        </mxCell>
        <mxCell id="6fAgSipWNxko-uqJC6Hb-31" style="edgeStyle=orthogonalEdgeStyle;rounded=0;orthogonalLoop=1;jettySize=auto;html=1;exitX=0;exitY=0.6;exitDx=0;exitDy=0;exitPerimeter=0;endArrow=oval;endFill=1;" edge="1" parent="1" source="6fAgSipWNxko-uqJC6Hb-16">
          <mxGeometry relative="1" as="geometry">
            <mxPoint x="80" y="397" as="targetPoint" />
            <Array as="points">
              <mxPoint x="320" y="186" />
              <mxPoint x="320" y="397" />
              <mxPoint x="81" y="397" />
            </Array>
          </mxGeometry>
        </mxCell>
        <mxCell id="6fAgSipWNxko-uqJC6Hb-32" style="edgeStyle=orthogonalEdgeStyle;rounded=0;orthogonalLoop=1;jettySize=auto;html=1;exitX=0;exitY=0.7;exitDx=0;exitDy=0;exitPerimeter=0;endArrow=oval;endFill=1;" edge="1" parent="1" source="6fAgSipWNxko-uqJC6Hb-16">
          <mxGeometry relative="1" as="geometry">
            <mxPoint x="80" y="445" as="targetPoint" />
            <Array as="points">
              <mxPoint x="340" y="192" />
              <mxPoint x="340" y="445" />
              <mxPoint x="80" y="445" />
            </Array>
          </mxGeometry>
        </mxCell>
        <mxCell id="6fAgSipWNxko-uqJC6Hb-49" style="edgeStyle=orthogonalEdgeStyle;rounded=0;orthogonalLoop=1;jettySize=auto;html=1;exitX=0.5;exitY=1;exitDx=0;exitDy=0;exitPerimeter=0;entryX=0.5;entryY=0;entryDx=0;entryDy=0;endArrow=none;endFill=0;" edge="1" parent="1" source="6fAgSipWNxko-uqJC6Hb-16" target="6fAgSipWNxko-uqJC6Hb-19">
          <mxGeometry relative="1" as="geometry" />
        </mxCell>
        <mxCell id="6fAgSipWNxko-uqJC6Hb-16" value="DC2259" style="rounded=0;whiteSpace=wrap;html=1;points=[[0,0.1,0,0,0],[0,0.2,0,0,0],[0,0.35,0,0,0],[0,0.45,0,0,0],[0,0.6,0,0,0],[0,0.7,0,0,0],[0,0.9,0,0,0],[0,1,0,0,0],[0.25,0,0,0,0],[0.25,1,0,0,0],[0.5,0,0,0,0],[0.5,1,0,0,0],[0.75,0,0,0,0],[0.75,1,0,0,0],[1,0,0,0,0],[1,0.25,0,0,0],[1,0.5,0,0,0],[1,0.75,0,0,0],[1,1,0,0,0]];" vertex="1" parent="1">
          <mxGeometry x="410" y="150" width="120" height="60" as="geometry" />
        </mxCell>
        <mxCell id="6fAgSipWNxko-uqJC6Hb-19" value="AMS Master" style="rounded=0;whiteSpace=wrap;html=1;" vertex="1" parent="1">
          <mxGeometry x="410" y="320" width="120" height="60" as="geometry" />
        </mxCell>
        <mxCell id="6fAgSipWNxko-uqJC6Hb-40" style="edgeStyle=orthogonalEdgeStyle;rounded=0;orthogonalLoop=1;jettySize=auto;html=1;exitX=0;exitY=0.5;exitDx=0;exitDy=0;entryX=0.857;entryY=0.5;entryDx=0;entryDy=0;entryPerimeter=0;endArrow=none;endFill=0;" edge="1" parent="1" source="6fAgSipWNxko-uqJC6Hb-20" target="6fAgSipWNxko-uqJC6Hb-38">
          <mxGeometry relative="1" as="geometry">
            <Array as="points">
              <mxPoint x="390" y="410" />
              <mxPoint x="390" y="530" />
            </Array>
          </mxGeometry>
        </mxCell>
        <mxCell id="6fAgSipWNxko-uqJC6Hb-44" style="edgeStyle=orthogonalEdgeStyle;rounded=0;orthogonalLoop=1;jettySize=auto;html=1;exitX=0.75;exitY=1;exitDx=0;exitDy=0;entryX=0.5;entryY=0;entryDx=0;entryDy=0;endArrow=none;endFill=0;" edge="1" parent="1" source="6fAgSipWNxko-uqJC6Hb-20" target="6fAgSipWNxko-uqJC6Hb-43">
          <mxGeometry relative="1" as="geometry" />
        </mxCell>
        <mxCell id="6fAgSipWNxko-uqJC6Hb-70" style="edgeStyle=orthogonalEdgeStyle;rounded=0;orthogonalLoop=1;jettySize=auto;html=1;exitX=0.2;exitY=1;exitDx=0;exitDy=0;exitPerimeter=0;entryX=1;entryY=0.25;entryDx=0;entryDy=0;endArrow=none;endFill=0;" edge="1" parent="1" source="6fAgSipWNxko-uqJC6Hb-20" target="6fAgSipWNxko-uqJC6Hb-68">
          <mxGeometry relative="1" as="geometry">
            <mxPoint x="434" y="600" as="targetPoint" />
          </mxGeometry>
        </mxCell>
        <mxCell id="6fAgSipWNxko-uqJC6Hb-73" style="edgeStyle=orthogonalEdgeStyle;rounded=0;orthogonalLoop=1;jettySize=auto;html=1;exitX=0.3;exitY=1;exitDx=0;exitDy=0;exitPerimeter=0;entryX=1;entryY=0.75;entryDx=0;entryDy=0;endArrow=none;endFill=0;" edge="1" parent="1" source="6fAgSipWNxko-uqJC6Hb-20" target="6fAgSipWNxko-uqJC6Hb-68">
          <mxGeometry relative="1" as="geometry" />
        </mxCell>
        <mxCell id="6fAgSipWNxko-uqJC6Hb-20" value="" style="rounded=0;whiteSpace=wrap;html=1;points=[[0,0,0,0,0],[0,0.25,0,0,0],[0,0.5,0,0,0],[0,0.75,0,0,0],[0,1,0,0,0],[0.2,1,0,0,0],[0.25,0,0,0,0],[0.3,1,0,0,0],[0.5,0,0,0,0],[0.5,1,0,0,0],[0.75,0,0,0,0],[0.75,1,0,0,0],[1,0,0,0,0],[1,0.25,0,0,0],[1,0.5,0,0,0],[1,0.75,0,0,0],[1,1,0,0,0]];" vertex="1" parent="1">
          <mxGeometry x="410" y="380" width="120" height="60" as="geometry" />
        </mxCell>
        <mxCell id="6fAgSipWNxko-uqJC6Hb-21" value="ISO" style="text;html=1;align=center;verticalAlign=middle;resizable=0;points=[];autosize=1;strokeColor=none;fillColor=none;" vertex="1" parent="1">
          <mxGeometry x="410" y="355" width="40" height="30" as="geometry" />
        </mxCell>
        <mxCell id="6fAgSipWNxko-uqJC6Hb-34" style="edgeStyle=orthogonalEdgeStyle;rounded=0;orthogonalLoop=1;jettySize=auto;html=1;exitX=0;exitY=0.4;exitDx=0;exitDy=0;exitPerimeter=0;entryX=0.366;entryY=0.503;entryDx=0;entryDy=0;entryPerimeter=0;endArrow=oval;endFill=0;" edge="1" parent="1" source="6fAgSipWNxko-uqJC6Hb-33" target="6fAgSipWNxko-uqJC6Hb-4">
          <mxGeometry relative="1" as="geometry">
            <Array as="points">
              <mxPoint x="190" y="524" />
              <mxPoint x="190" y="183" />
            </Array>
          </mxGeometry>
        </mxCell>
        <mxCell id="6fAgSipWNxko-uqJC6Hb-35" style="edgeStyle=orthogonalEdgeStyle;rounded=0;orthogonalLoop=1;jettySize=auto;html=1;exitX=0;exitY=0.5;exitDx=0;exitDy=0;exitPerimeter=0;endArrow=oval;endFill=0;" edge="1" parent="1" source="6fAgSipWNxko-uqJC6Hb-33">
          <mxGeometry relative="1" as="geometry">
            <mxPoint x="80" y="245" as="targetPoint" />
            <Array as="points">
              <mxPoint x="160" y="530" />
              <mxPoint x="160" y="245" />
            </Array>
          </mxGeometry>
        </mxCell>
        <mxCell id="6fAgSipWNxko-uqJC6Hb-36" style="edgeStyle=orthogonalEdgeStyle;rounded=0;orthogonalLoop=1;jettySize=auto;html=1;exitX=0;exitY=0.6;exitDx=0;exitDy=0;exitPerimeter=0;endArrow=oval;endFill=0;" edge="1" parent="1" source="6fAgSipWNxko-uqJC6Hb-33">
          <mxGeometry relative="1" as="geometry">
            <mxPoint x="80" y="305" as="targetPoint" />
            <Array as="points">
              <mxPoint x="135" y="536" />
              <mxPoint x="135" y="305" />
            </Array>
          </mxGeometry>
        </mxCell>
        <mxCell id="6fAgSipWNxko-uqJC6Hb-37" style="edgeStyle=orthogonalEdgeStyle;rounded=0;orthogonalLoop=1;jettySize=auto;html=1;exitX=0;exitY=0.7;exitDx=0;exitDy=0;exitPerimeter=0;endArrow=oval;endFill=0;" edge="1" parent="1" source="6fAgSipWNxko-uqJC6Hb-33">
          <mxGeometry relative="1" as="geometry">
            <mxPoint x="80" y="435" as="targetPoint" />
            <Array as="points">
              <mxPoint x="110" y="542" />
              <mxPoint x="110" y="435" />
              <mxPoint x="80" y="435" />
            </Array>
          </mxGeometry>
        </mxCell>
        <mxCell id="6fAgSipWNxko-uqJC6Hb-33" value="温度測定用&lt;br&gt;自作基板" style="rounded=0;whiteSpace=wrap;html=1;points=[[0,0,0,0,0],[0,0.4,0,0,0],[0,0.5,0,0,0],[0,0.6,0,0,0],[0,0.7,0,0,0],[0,1,0,0,0],[0.25,0,0,0,0],[0.25,1,0,0,0],[0.5,0,0,0,0],[0.5,1,0,0,0],[0.75,0,0,0,0],[0.75,1,0,0,0],[1,0,0,0,0],[1,0.25,0,0,0],[1,0.5,0,0,0],[1,0.75,0,0,0],[1,1,0,0,0]];" vertex="1" parent="1">
          <mxGeometry x="250" y="500" width="120" height="60" as="geometry" />
        </mxCell>
        <mxCell id="6fAgSipWNxko-uqJC6Hb-38" value="i2c" style="text;html=1;align=center;verticalAlign=middle;resizable=0;points=[];autosize=1;strokeColor=none;fillColor=none;" vertex="1" parent="1">
          <mxGeometry x="340" y="515" width="35" height="30" as="geometry" />
        </mxCell>
        <mxCell id="6fAgSipWNxko-uqJC6Hb-39" value="i2c" style="text;html=1;align=center;verticalAlign=middle;resizable=0;points=[];autosize=1;strokeColor=none;fillColor=none;" vertex="1" parent="1">
          <mxGeometry x="405" y="395" width="35" height="30" as="geometry" />
        </mxCell>
        <mxCell id="6fAgSipWNxko-uqJC6Hb-41" value="CAN" style="text;html=1;align=center;verticalAlign=middle;resizable=0;points=[];autosize=1;strokeColor=none;fillColor=none;" vertex="1" parent="1">
          <mxGeometry x="490" y="395" width="45" height="30" as="geometry" />
        </mxCell>
        <mxCell id="6fAgSipWNxko-uqJC6Hb-42" value="Sig" style="text;html=1;align=center;verticalAlign=middle;resizable=0;points=[];autosize=1;strokeColor=none;fillColor=none;" vertex="1" parent="1">
          <mxGeometry x="480" y="414" width="40" height="30" as="geometry" />
        </mxCell>
        <mxCell id="6fAgSipWNxko-uqJC6Hb-43" value="Shutdown Circuit" style="rounded=0;whiteSpace=wrap;html=1;" vertex="1" parent="1">
          <mxGeometry x="515" y="510" width="120" height="60" as="geometry" />
        </mxCell>
        <mxCell id="6fAgSipWNxko-uqJC6Hb-45" value="SPI" style="text;html=1;align=center;verticalAlign=middle;resizable=0;points=[];autosize=1;strokeColor=none;fillColor=none;" vertex="1" parent="1">
          <mxGeometry x="450" y="185" width="40" height="30" as="geometry" />
        </mxCell>
        <mxCell id="6fAgSipWNxko-uqJC6Hb-48" style="edgeStyle=orthogonalEdgeStyle;rounded=0;orthogonalLoop=1;jettySize=auto;html=1;exitX=1;exitY=0.5;exitDx=0;exitDy=0;exitPerimeter=0;endArrow=oval;endFill=1;" edge="1" parent="1" source="6fAgSipWNxko-uqJC6Hb-46">
          <mxGeometry relative="1" as="geometry">
            <mxPoint x="390" y="530" as="targetPoint" />
          </mxGeometry>
        </mxCell>
        <mxCell id="6fAgSipWNxko-uqJC6Hb-46" value="温度測定用&lt;br&gt;自作基板" style="rounded=0;whiteSpace=wrap;html=1;points=[[0,0,0,0,0],[0,0.4,0,0,0],[0,0.5,0,0,0],[0,0.6,0,0,0],[0,0.7,0,0,0],[0,1,0,0,0],[0.25,0,0,0,0],[0.25,1,0,0,0],[0.5,0,0,0,0],[0.5,1,0,0,0],[0.75,0,0,0,0],[0.75,1,0,0,0],[1,0,0,0,0],[1,0.25,0,0,0],[1,0.5,0,0,0],[1,0.75,0,0,0],[1,1,0,0,0]];" vertex="1" parent="1">
          <mxGeometry x="250" y="620" width="120" height="60" as="geometry" />
        </mxCell>
        <mxCell id="6fAgSipWNxko-uqJC6Hb-47" value="i2c" style="text;html=1;align=center;verticalAlign=middle;resizable=0;points=[];autosize=1;strokeColor=none;fillColor=none;" vertex="1" parent="1">
          <mxGeometry x="340" y="635" width="35" height="30" as="geometry" />
        </mxCell>
        <mxCell id="6fAgSipWNxko-uqJC6Hb-50" value="SPI" style="text;html=1;align=center;verticalAlign=middle;resizable=0;points=[];autosize=1;strokeColor=none;fillColor=none;" vertex="1" parent="1">
          <mxGeometry x="450" y="315" width="40" height="30" as="geometry" />
        </mxCell>
        <mxCell id="6fAgSipWNxko-uqJC6Hb-53" style="edgeStyle=orthogonalEdgeStyle;rounded=0;orthogonalLoop=1;jettySize=auto;html=1;exitX=0.5;exitY=0;exitDx=0;exitDy=0;exitPerimeter=0;entryX=0.5;entryY=0;entryDx=0;entryDy=0;entryPerimeter=0;endArrow=none;endFill=0;" edge="1" parent="1" source="6fAgSipWNxko-uqJC6Hb-51" target="6fAgSipWNxko-uqJC6Hb-16">
          <mxGeometry relative="1" as="geometry" />
        </mxCell>
        <mxCell id="6fAgSipWNxko-uqJC6Hb-51" value="DC2259" style="rounded=0;whiteSpace=wrap;html=1;points=[[0,0.1,0,0,0],[0,0.2,0,0,0],[0,0.35,0,0,0],[0,0.45,0,0,0],[0,0.6,0,0,0],[0,0.7,0,0,0],[0,0.9,0,0,0],[0,1,0,0,0],[0.25,0,0,0,0],[0.25,1,0,0,0],[0.5,0,0,0,0],[0.5,1,0,0,0],[0.75,0,0,0,0],[0.75,1,0,0,0],[1,0,0,0,0],[1,0.25,0,0,0],[1,0.5,0,0,0],[1,0.75,0,0,0],[1,1,0,0,0]];" vertex="1" parent="1">
          <mxGeometry x="600" y="150" width="120" height="60" as="geometry" />
        </mxCell>
        <mxCell id="6fAgSipWNxko-uqJC6Hb-52" value="isoSPI" style="text;html=1;align=center;verticalAlign=middle;resizable=0;points=[];autosize=1;strokeColor=none;fillColor=none;" vertex="1" parent="1">
          <mxGeometry x="632.5" y="145" width="55" height="30" as="geometry" />
        </mxCell>
        <mxCell id="6fAgSipWNxko-uqJC6Hb-54" value="isoSPI" style="text;html=1;align=center;verticalAlign=middle;resizable=0;points=[];autosize=1;strokeColor=none;fillColor=none;" vertex="1" parent="1">
          <mxGeometry x="442.5" y="145" width="55" height="30" as="geometry" />
        </mxCell>
        <mxCell id="6fAgSipWNxko-uqJC6Hb-68" value="12V Battery" style="rounded=0;whiteSpace=wrap;html=1;" vertex="1" parent="1">
          <mxGeometry x="85" y="710" width="120" height="60" as="geometry" />
        </mxCell>
        <mxCell id="6fAgSipWNxko-uqJC6Hb-69" value="Power" style="text;html=1;align=center;verticalAlign=middle;resizable=0;points=[];autosize=1;strokeColor=none;fillColor=none;" vertex="1" parent="1">
          <mxGeometry x="410" y="414" width="55" height="30" as="geometry" />
        </mxCell>
        <mxCell id="6fAgSipWNxko-uqJC6Hb-74" style="edgeStyle=orthogonalEdgeStyle;rounded=0;orthogonalLoop=1;jettySize=auto;html=1;exitX=0.62;exitY=0;exitDx=0;exitDy=0;exitPerimeter=0;endArrow=oval;endFill=1;" edge="1" parent="1" source="6fAgSipWNxko-uqJC6Hb-71">
          <mxGeometry relative="1" as="geometry">
            <mxPoint x="445" y="755" as="targetPoint" />
          </mxGeometry>
        </mxCell>
        <mxCell id="6fAgSipWNxko-uqJC6Hb-71" value="" style="pointerEvents=1;verticalLabelPosition=bottom;shadow=0;dashed=0;align=center;html=1;verticalAlign=top;shape=mxgraph.electrical.miscellaneous.chassis;" vertex="1" parent="1">
          <mxGeometry x="405" y="780" width="65" height="32" as="geometry" />
        </mxCell>
      </root>
    </mxGraphModel>
  </diagram>
</mxfile>
